<?xml version="1.0" encoding="UTF-8"?>
<svg id="master-artboard" version="1.1" xmlns="http://www.w3.org/2000/svg" x="0px" y="0px" width="480px" height="180px">
	<rect id="ee-background" x="0" y="0" style="fill: white; fill-opacity: 0; pointer-events: none;"/>

	<g transform="matrix(1, 0, 0, 1, 0, 0)">
		<g transform="translate(0,180) scale(0.05,-0.05)" fill="#000000">
			<path fill="#d2bd7f" d="M1655 3174 c-173 -327 -422 -705 -623 -944 -113 -134 -286 -300 -372 -356 -98 -63 -160 -86 -250 -93 l-75 -6 2 -110 c3 -136 14 -212 53 -345 120 -419 446 -765 860 -914 291 -105 628 -107 920 -4 336 119 613 362 774 677 61 121 87 191 115 311 23 97 44 285 39 345 l-3 40 -75 6 c-90 7 -152 30 -250 93 -88 57 -270 233 -383 369 -185 223 -422 580 -587 885 -45 83 -84 152 -85 152 -2 0 -29 -48 -60 -106z m129 -307 c87 -151 253 -402 366 -552 281 -374 520 -586 740 -656 l55 -17 -1 -69 c-1 -38 -9 -101 -18 -140 -109 -480 -511 -864 -995 -948 -107 -19 -325 -19 -432 0 -494 86 -898 481 -999 974 -11 57 -20 122 -18 143 l3 39 82 28 c190 66 418 265 669 587 101 129 336 479 414 616 30 54 60 97 65 97 6 1 37 -45 69 -102z"/>
			<path fill="#d2bd7f" d="M1460 2180 l0 -110 110 0 110 0 0 110 0 110 -110 0 -110 0 0 -110z"/>
			<path fill="#d2bd7f" d="M1750 2180 l0 -110 110 0 110 0 0 110 0 110 -110 0 -110 0 0 -110z"/>
			<path fill="#d2bd7f" d="M1460 1890 l0 -110 110 0 110 0 0 110 0 110 -110 0 -110 0 0 -110z"/>
			<path fill="#d2bd7f" d="M1750 1890 l0 -110 110 0 110 0 0 110 0 110 -110 0 -110 0 0 -110z"/>
			<path fill="#d2bd7f" d="M807 1586 c-21 -8 -63 -31 -93 -51 -42 -27 -54 -41 -52 -57 6 -43 32 -44 97 -4 78 48 114 53 166 26 66 -35 130 -37 202 -6 76 32 85 32 148 1 65 -32 125 -32 193 0 67 31 84 31 147 0 65 -32 124 -32 193 0 67 31 84 31 147 0 65 -32 124 -32 193 0 67 31 77 31 144 0 69 -32 128 -32 193 0 28 13 60 25 73 25 13 0 59 -19 102 -42 67 -37 80 -41 94 -29 30 25 19 50 -41 88 -103 65 -171 74 -255 32 -49 -25 -89 -24 -141 3 -28 14 -60 21 -97 21 -37 0 -69 -7 -97 -21 -53 -28 -93 -28 -146 -1 -56 29 -129 30 -188 1 -57 -28 -98 -28 -152 -1 -57 30 -130 30 -185 1 -54 -28 -101 -28 -155 -1 -56 29 -129 29 -184 1 -52 -27 -102 -28 -151 -3 -53 27 -110 33 -155 17z"/>
			<path fill="#d2bd7f" d="M788 1324 c-43 -18 -58 -49 -34 -72 13 -14 21 -14 49 -4 49 18 85 15 136 -10 60 -29 132 -29 188 0 53 28 88 28 149 0 63 -28 135 -28 191 1 53 27 88 27 149 -1 63 -28 135 -28 191 1 53 27 88 27 149 -1 63 -28 135 -28 191 1 53 27 93 27 146 -1 56 -29 138 -29 194 0 46 24 93 28 124 11 25 -13 55 -3 62 20 6 25 -1 35 -40 55 -46 23 -109 20 -171 -9 -67 -31 -84 -31 -147 0 -31 15 -67 25 -95 25 -28 0 -64 -10 -95 -25 -63 -31 -87 -31 -150 0 -65 32 -125 32 -190 0 -63 -31 -79 -31 -150 1 -67 31 -133 29 -200 -5 -51 -27 -71 -26 -137 4 -67 31 -113 31 -188 0 -74 -31 -85 -31 -152 0 -60 28 -116 31 -170 9z"/>
			<path fill="#d2bd7f" d="M1170 1080 c-19 -4 -50 -14 -69 -24 -25 -13 -46 -16 -80 -12 -105 14 -106 14 -106 -18 0 -64 119 -86 217 -41 66 31 73 31 140 0 68 -32 123 -32 198 0 73 31 82 31 145 0 64 -32 120 -32 195 0 73 31 76 31 142 0 32 -15 71 -25 98 -25 27 0 66 10 98 25 30 14 62 25 72 25 10 0 42 -11 72 -25 63 -29 128 -32 178 -7 25 12 35 24 35 41 0 32 -29 50 -55 33 -30 -18 -96 -15 -141 9 -54 27 -127 27 -179 0 -51 -26 -105 -27 -155 -1 -25 13 -59 20 -95 20 -36 0 -68 -7 -93 -20 -48 -26 -100 -25 -154 1 -56 27 -128 27 -182 0 -47 -25 -101 -27 -140 -6 -42 21 -101 32 -141 25z"/>
			<path fill="#d2bd7f" d="M1158 824 c-23 -7 -33 -41 -18 -59 7 -8 28 -15 48 -15 19 0 65 -12 100 -26 73 -29 116 -28 183 6 51 26 79 25 157 -6 73 -29 116 -28 183 6 50 26 90 25 142 -2 28 -15 60 -22 97 -22 37 0 69 7 97 22 46 24 93 28 124 11 36 -19 77 10 63 45 -7 19 -76 46 -117 46 -17 0 -56 -11 -85 -25 -30 -14 -67 -25 -82 -25 -15 0 -52 11 -82 25 -29 14 -69 25 -88 25 -19 0 -59 -11 -88 -25 -30 -14 -67 -25 -82 -25 -15 0 -52 11 -82 25 -29 14 -69 25 -88 25 -19 0 -59 -11 -88 -25 -66 -31 -90 -31 -150 -4 -47 22 -112 32 -144 23z"/>
			<path fill="#d2bd7f" d="M1340 3034 c-47 -14 -88 -28 -91 -32 -6 -6 69 -224 81 -236 3 -3 38 47 78 110 53 85 72 124 72 150 0 31 -3 34 -27 33 -16 0 -66 -11 -113 -25z"/>
			<path fill="#d2bd7f" d="M1976 3048 c-18 -57 -14 -71 57 -185 39 -62 74 -110 77 -106 8 8 90 224 90 235 0 7 -103 42 -155 53 -16 3 -38 8 -48 11 -9 3 -19 -1 -21 -8z"/>
			<path fill="#d2bd7f" d="M1060 2923 c-114 -66 -141 -86 -136 -100 11 -27 228 -323 235 -319 3 2 28 36 55 75 l48 71 -70 147 c-39 81 -75 149 -79 150 -4 1 -28 -10 -53 -24z"/>
			<path fill="#d2bd7f" d="M2254 2789 l-75 -152 35 -51 c20 -28 44 -62 54 -75 l19 -23 109 148 c60 81 115 156 122 166 12 16 6 22 -55 62 -37 24 -83 51 -100 60 l-33 16 -76 -151z"/>
			<path fill="#d2bd7f" d="M722 2666 c-40 -40 -72 -79 -72 -85 0 -11 331 -281 345 -281 8 0 34 29 71 82 l26 37 -138 158 c-76 87 -142 159 -149 161 -6 1 -43 -31 -83 -72z"/>
			<path fill="#d2bd7f" d="M2492 2570 c-78 -88 -142 -162 -142 -165 0 -8 81 -109 90 -113 11 -4 344 256 348 271 3 12 -133 167 -147 167 -4 0 -71 -72 -149 -160z"/>
			<path fill="#d2bd7f" d="M526 2412 c-19 -32 -44 -79 -55 -105 l-21 -48 23 -8 c12 -5 96 -41 187 -81 l165 -72 52 59 c40 44 49 61 40 69 -7 7 -89 64 -184 128 l-171 116 -36 -58z"/>
			<path fill="#d2bd7f" d="M2705 2339 c-93 -60 -176 -114 -184 -118 -12 -7 -4 -22 38 -70 29 -34 57 -61 62 -61 4 0 54 20 111 44 57 24 138 58 180 76 l78 32 -45 87 c-71 138 -45 137 -240 10z"/>
			<path fill="#d2bd7f" d="M395 2118 c-12 -34 -45 -174 -45 -193 0 -20 8 -24 75 -34 42 -6 84 -11 95 -11 36 0 225 128 210 143 -6 5 -312 107 -323 107 -4 0 -10 -6 -12 -12z"/>
			<path fill="#d2bd7f" d="M2868 2062 c-81 -26 -149 -50 -153 -53 -8 -9 90 -81 153 -113 53 -27 85 -31 167 -19 l47 6 -5 41 c-12 85 -40 186 -51 185 -6 0 -77 -22 -158 -47z"/>
		</g>
	</g>

	<g transform="matrix(1, 0, 0, 1, -10, -12)  scale(0.6,0.6)">
		<path d="M 307 150 L 322 150 L 322 169 L 337 169 L 337 150 L 352 150 L 352 199 L 337 199 L 337 179.5 L 322 179.5 L 322 199 L 307 199 L 307 150 ZM 386 200 C 383 200 381 200.14999389648438 378.701171875 199.49000549316406 C 376.3211669921875 198.8300018310547 374.2244873046875 197.9166717529297 372.4111633300781 196.75 C 370.59783935546875 195.5833282470703 369.0611572265625 194.19667053222656 367.8011474609375 192.58999633789062 C 366.5411682128906 190.98333740234375 365.51116943359375 189.23666381835938 364.7111511230469 187.35000610351562 C 363.9111633300781 185 363.3345031738281 183.49000549316406 362.9811706542969 181.41000366210938 C 362.62115478515625 179.3300018310547 362.441162109375 177.2133331298828 362.441162109375 175.05999755859375 C 362.441162109375 172.93333435058594 362.6611633300781 170.82666015625 363.1011657714844 168.74000549316406 C 363.5411682128906 166.64666748046875 364.19781494140625 164.65333557128906 365.0711669921875 162.760009765625 C 365.951171875 160.86000061035156 367.0611572265625 159.10333251953125 368.4011535644531 157.49000549316406 C 369.74114990234375 155.8699951171875 371.3144836425781 154 373.12115478515625 153.29000854492188 C 374.9211730957031 152.11000061035156 376.9611511230469 151.18667602539062 379.24114990234375 150 C 381.5144958496094 149.84666442871094 384.037841796875 149.510009765625 386 149.510009765625 C 389.5845031738281 149.510009765625 392.11114501953125 149.84666442871094 394.39117431640625 150 C 396.66448974609375 151.18667602539062 398.70782470703125 152.11000061035156 400.5211486816406 153.29000854492188 C 402.3345031738281 154 403.9111633300781 155.8699951171875 405.25115966796875 157.49000549316406 C 406.59783935546875 159.10333251953125 407.7144775390625 160.86000061035156 408.6011657714844 162.760009765625 C 409.4878234863281 164.65333557128906 410.1511535644531 166.64666748046875 410.5911560058594 168.74000549316406 C 411.0311584472656 170.82666015625 411.25115966796875 172.93333435058594 411.25115966796875 175.05999755859375 C 411.25115966796875 177.2133331298828 411.06781005859375 179.3300018310547 410.701171875 181.41000366210938 C 410.32781982421875 183.49000549316406 409.7445068359375 185 408.951171875 187.35000610351562 C 408.1511535644531 189.23666381835938 407.114501953125 190.98333740234375 405.8411560058594 192.58999633789062 C 404.5744934082031 194.19667053222656 403.037841796875 195.5833282470703 401.2311706542969 196.75 C 399.43115234375 197.9166717529297 397.3345031738281 198.8300018310547 394.941162109375 199.49000549316406 C 392.5478210449219 200.14999389648438 389.83782958984375 200 386 200 M 377.9711608886719 175.05999755859375 C 377.9711608886719 177.8333282470703 378.17449951171875 180.20333862304688 378.5811462402344 182.1699981689453 C 378.9811706542969 184.1366729736328 379.5578308105469 185.7433319091797 380.3111572265625 186.99000549316406 C 381.0644836425781 188.23666381835938 381.9878234863281 189.14999389648438 383 189.72999572753906 C 384.18115234375 190.30332946777344 385.42449951171875 190.58999633789062 386 190.58999633789062 C 388.19781494140625 190.58999633789062 389.441162109375 190.30332946777344 390.5411682128906 189.72999572753906 C 391.6344909667969 189.14999389648438 392.5711669921875 188.23666381835938 393.3511657714844 186.99000549316406 C 394.1244812011719 185.7433319091797 394.7111511230469 184.1366729736328 395.11114501953125 182.1699981689453 C 395.517822265625 180.20333862304688 395.7211608886719 177.8333282470703 395.7211608886719 175.05999755859375 C 395.7211608886719 172.2866668701172 395.517822265625 169.913330078125 395.11114501953125 167.94000244140625 C 394.7111511230469 165.9666748046875 394.1244812011719 164.35000610351562 393.3511657714844 163.08999633789062 C 392.5711669921875 161.8300018310547 391.6344909667969 160.89999389648438 390.5411682128906 160.3000030517578 C 389.441162109375 159.69332885742188 388.19781494140625 159.38999938964844 386 159.38999938964844 C 385.42449951171875 159.38999938964844 384.18115234375 159.69332885742188 383 160.3000030517578 C 381.9878234863281 160.89999389648438 381.0644836425781 161.8300018310547 380.3111572265625 163.08999633789062 C 379.5578308105469 164.35000610351562 378.9811706542969 165.9666748046875 378.5811462402344 167.94000244140625 C 378.17449951171875 169.913330078125 377.9711608886719 172.2866668701172 377.9711608886719 175.05999755859375 ZM 426.5927429199219 199 L 426.5927429199219 161.75 L 415.50274658203125 161.75 L 415.50274658203125 150 L 453.4627380371094 150 L 453.4627380371094 161.75 L 442.12274169921875 161.75 L 442.12274169921875 199 L 426.5927429199219 199 ZM 460.4544677734375 150 L 494.844482421875 150 L 494.844482421875 159.52999877929688 L 475.9844665527344 159.52999877929688 L 475.9844665527344 169.89999389648438 L 492.6244812011719 169.89999389648438 L 492.6244812011719 178.77000427246094 L 475.9844665527344 178.77000427246094 L 475.9844665527344 189.49000549316406 L 494.844482421875 189.49000549316406 L 494.844482421875 199 L 460.4544677734375 199 L 460.4544677734375 150 ZM 506.8201904296875 150 L 522.3501586914062 150 L 522.3501586914062 189.49000549316406 L 539.0001831054688 189.49000549316406 L 539.0001831054688 199 L 506.8201904296875 199 L 506.8201904296875 150 ZM 572.75439453125 199 L 572.75439453125 150 L 589.8143920898438 150 C 594.0210571289062 150 597.801025390625 150.94000244140625 601.1543579101562 151.9199981689453 C 604.5010375976562 152.90667724609375 607.3377075195312 154.39999389648438 609.6643676757812 156.39999389648438 C 611.984375 158.39334106445312 613.764404296875 160.89999389648438 615.00439453125 163.9199981689453 C 616.2377319335938 166.93333435058594 616.8543701171875 170.47332763671875 616.8543701171875 174.54000854492188 C 616.8543701171875 177.63999938964844 616.5377197265625 180.41000366210938 615.9043579101562 182.85000610351562 C 615.264404296875 185.28334045410156 614.3610229492188 187.42666625976562 613.1943969726562 189.27999877929688 C 612.0277099609375 191.1266632080078 610.6177368164062 192.69332885742188 608.96435546875 193.97999572753906 C 607.3176879882812 195.25999450683594 605.4877319335938 196.30999755859375 603.474365234375 197.1300048828125 C 601.4610595703125 197.9499969482422 599.2943725585938 198.54666137695312 596.974365234375 198.9199981689453 C 594.6543579101562 199.2866668701172 592.2210693359375 199 589.6743774414062 199 L 572.75439453125 199 M 588.2843627929688 188.3800048828125 L 589.3244018554688 188.3800048828125 C 591.1310424804688 188.3800048828125 592.7743530273438 188.2100067138672 594.25439453125 187.8699951171875 C 595.734375 187.5366668701172 596.9977416992188 186.8733367919922 598.0443725585938 185.8800048828125 C 599.0977172851562 184.8866729736328 599.90771484375 183.49000549316406 600.474365234375 181.69000244140625 C 601.041015625 179.88333129882812 601.3244018554688 177.5 601.3244018554688 174.54000854492188 C 601.3244018554688 171.86000061035156 601.071044921875 169.6266632080078 600.5643920898438 167.83999633789062 C 600.051025390625 166.04666137695312 599.2977294921875 164.61334228515625 598.3043823242188 163.54000854492188 C 597.31103515625 162.4600067138672 596.0877075195312 161.69667053222656 594.6343994140625 161.25 C 593.1743774414062 160.79666137695312 591.5110473632812 160.57000732421875 589.6444091796875 160.57000732421875 L 588.2843627929688 160.57000732421875 L 588.2843627929688 188.3800048828125 ZM 668.9163818359375 199 L 650.3963623046875 199 L 648.1063842773438 189.02999877929688 L 635.9463500976562 189.02999877929688 L 633.75634765625 199 L 621.246337890625 199 L 633.7263793945312 150 L 655.4263916015625 150 L 668.9163818359375 199 M 642.1863403320312 158.0800018310547 L 637.4363403320312 180.9199981689453 L 647.3463745117188 180.9199981689453 L 643.25634765625 158.0800018310547 L 642.1863403320312 158.0800018310547 ZM 675.8390502929688 150 L 690.8490600585938 150 L 709.509033203125 175.05999755859375 L 709.509033203125 150 L 721.3590087890625 150 L 721.3590087890625 199 L 705.9690551757812 199 L 687.5990600585938 173.39999389648438 L 687.5990600585938 199 L 675.8390502929688 199 L 675.8390502929688 150 ZM 775.9808349609375 199 L 757.4608154296875 199 L 755.1708374023438 189.02999877929688 L 743.0108032226562 189.02999877929688 L 740.82080078125 199 L 728.310791015625 199 L 740.7908325195312 150 L 762.4908447265625 150 L 775.9808349609375 199 M 749.2507934570312 158.0800018310547 L 744.5007934570312 180.9199981689453 L 754.4108276367188 180.9199981689453 L 750.32080078125 158.0800018310547 L 749.2507934570312 158.0800018310547 Z" style="fill: #d2bd7f; "/>
	</g>
</svg>