<svg xmlns="http://www.w3.org/2000/svg" viewBox="0 0 157.2 157.2" xmlns:v="https://vecta.io/nano"><circle cx="78.6" cy="78.6" r="78.6" fill="#010101"/><path d="M44.8 56.3H41L28.7 28h5L43 49.8 52.3 28h4.9L44.8 56.3zm39.9 0h-5.4l-6.9-10.6h-7.2v10.6h-4.5V28h12.4c8.4 0 10.1 4.8 10.1 8.9 0 4.4-2.1 7.3-6.1 8.4l7.6 11zM65.2 41.5H73c5.1 0 5.7-2.6 5.7-4.6s-.6-4.6-5.7-4.6h-7.8v9.2zM87.4 92h-5l-2.7-6H64.9l-2.7 6h-4.8l13.1-28.3h3.8L87.4 92zM66.8 81.7h11l-5.5-12-5.5 12zM111.3 92H90.9V63.7h4.5v24.1h15.9V92zm24.7 0h-20.4V63.7h4.5v24.1H136V92zm-77.3 37.9h-5l-2.7-6H36.2l-2.7 6h-4.8l13.1-28.3h3.8l13.1 28.3zm-20.5-10.3h11l-5.5-12-5.5 12zm48.1 10.3h-5.4L74 119.3h-7.2v10.6h-4.5v-28.3h12.4c8.4 0 10.1 4.8 10.1 8.9 0 4.4-2.1 7.3-6.1 8.4l7.6 11zM66.8 115h7.8c5.1 0 5.7-2.6 5.7-4.6s-.6-4.6-5.7-4.6h-7.8v9.2zm34.9 14.9h-4.5v-24.1H88v-4.2h22.8v4.2h-9.1v24.1z" fill="#fff"/><path d="M136 44.9H90.9v-5.4H136v5.4z" fill="#29aae1"/><path d="M53.1 80.5h-39v-5.3h39v5.3z" fill="#ec2227"/><path d="M136 118.4h-21v-5.3h21v5.3z" fill="#ffc316"/></svg>