<svg width="78" height="30" viewBox="0 0 78 30" fill="none" xmlns="http://www.w3.org/2000/svg">
<path d="M61.1593 2.77783H50.0137C49.1092 2.77783 48.3172 3.38492 48.0823 4.25841L41.1594 30L61.1593 2.77783Z" fill="white"/>
<path d="M38.9371 0L42.9395 5.88914C43.3945 6.55862 43.5597 7.38356 43.3975 8.1766L38.9371 29.9836L34.4768 8.1766C34.3146 7.38356 34.4797 6.55862 34.9347 5.88914L38.9371 0Z" fill="white"/>
<path d="M16.715 2.77759H27.8606C28.7651 2.77759 29.557 3.38468 29.792 4.25816L36.7149 29.9997L16.715 2.77759Z" fill="white"/>
<path fill-rule="evenodd" clip-rule="evenodd" d="M3.92537 11.6592C4.46726 12.1183 5.15447 12.3703 5.86471 12.3703H21.1895L18.7781 9.43062C18.2083 8.73595 17.3571 8.33325 16.4587 8.33325H0L3.92537 11.6592ZM10.7361 17.8385C11.2897 18.3473 12.0142 18.6296 12.766 18.6296H25.7494L23.746 16.1256C23.1767 15.4141 22.3148 14.9999 21.4035 14.9999H7.64703L10.7361 17.8385ZM18.8171 24.6012C19.3561 25.0503 20.0356 25.2962 20.7372 25.2962H30.7167L28.7133 22.7923C28.144 22.0807 27.2821 21.6665 26.3708 21.6665H15.2941L18.8171 24.6012Z" fill="white"/>
<path fill-rule="evenodd" clip-rule="evenodd" d="M73.4594 11.8962C73.0982 12.2023 72.64 12.3703 72.1665 12.3703H56.475L59.1865 9.06483C59.5663 8.60172 60.1338 8.33325 60.7328 8.33325H77.6646L73.4594 11.8962ZM66.6415 18.1022C66.2724 18.4414 65.7895 18.6296 65.2882 18.6296H51.9151L54.2188 15.7504C54.5983 15.276 55.1729 14.9999 55.7804 14.9999H70.0175L66.6415 18.1022ZM58.5694 24.8329C58.21 25.1323 57.7571 25.2962 57.2893 25.2962H46.9478L49.2515 22.417C49.631 21.9427 50.2056 21.6665 50.8131 21.6665H62.3705L58.5694 24.8329Z" fill="white"/>
</svg>
